<?xml version="1.0" encoding="UTF-8"?>
<svg xmlns="http://www.w3.org/2000/svg" version="1.1" viewBox="0 0 24 24">
  <defs>
    <style>
      .cls-1 {
        fill: #fff;
      }
    </style>
  </defs>
  <!-- Generator: Adobe Illustrator 28.7.0, SVG Export Plug-In . SVG Version: 1.2.0 Build 136)  -->
  <g>
    <g id="Calque_1">
      <path class="cls-1" d="M12,20c.9,0,1.7-.1,2.5-.4s1.5-.6,2.2-1.1c-.7-.5-1.4-.9-2.2-1.1-.8-.3-1.6-.4-2.5-.4s-1.7.1-2.5.4c-.8.3-1.5.6-2.2,1.1.7.5,1.4.9,2.2,1.1s1.6.4,2.5.4ZM14.7,11.8l-1.4-1.4c0-.1.2-.3.2-.4s0-.3,0-.5c0-.4-.1-.8-.4-1.1-.3-.3-.6-.4-1.1-.4s-.3,0-.5,0-.3.1-.4.2l-1.4-1.4c.3-.3.7-.5,1.1-.6s.8-.2,1.2-.2c1,0,1.8.3,2.5,1s1,1.5,1,2.5,0,.8-.2,1.2-.4.7-.6,1.1ZM20.4,17.5l-1.5-1.5c.4-.6.6-1.3.8-2s.3-1.4.3-2.1c0-2.2-.8-4.1-2.3-5.7s-3.4-2.3-5.7-2.3-1.4,0-2.1.3-1.3.5-2,.8l-1.5-1.5c.8-.5,1.7-.9,2.6-1.2s1.9-.4,2.9-.4,2.7.3,3.9.8,2.3,1.2,3.2,2.1,1.6,2,2.1,3.2.8,2.5.8,3.9-.1,1.9-.4,2.9-.7,1.8-1.2,2.6ZM12,22c-1.4,0-2.7-.3-3.9-.8s-2.3-1.2-3.2-2.1-1.6-2-2.1-3.2-.8-2.5-.8-3.9.1-1.9.4-2.9.7-1.8,1.2-2.7L.7,3.5l1.4-1.4,19.8,19.8-1.4,1.4L5.1,7.9c-.4.6-.6,1.3-.8,2s-.3,1.4-.3,2.1.2,1.9.5,2.7.8,1.7,1.4,2.4c.9-.7,1.9-1.2,2.9-1.6s2.1-.5,3.2-.5,1.3,0,1.9.2,1.3.3,1.9.6l3.3,3.3c-1,1-2,1.7-3.3,2.2s-2.5.8-3.8.8Z"/>
    </g>
  </g>
</svg>